<?xml version="1.0" encoding="UTF-8" standalone="no"?>
<!-- Created with Inkscape (http://www.inkscape.org/) -->

<svg
   xmlns:osb="http://www.openswatchbook.org/uri/2009/osb"
   xmlns:dc="http://purl.org/dc/elements/1.1/"
   xmlns:cc="http://creativecommons.org/ns#"
   xmlns:rdf="http://www.w3.org/1999/02/22-rdf-syntax-ns#"
   xmlns:svg="http://www.w3.org/2000/svg"
   xmlns="http://www.w3.org/2000/svg"
   xmlns:sodipodi="http://sodipodi.sourceforge.net/DTD/sodipodi-0.dtd"
   xmlns:inkscape="http://www.inkscape.org/namespaces/inkscape"
   width="210mm"
   height="297mm"
   viewBox="0 0 210 297"
   version="1.1"
   id="svg8"
   inkscape:version="0.92.1 r15371"
   sodipodi:docname="notepad.svg">
  <defs
     id="defs2">
    <linearGradient
       id="linearGradient6091"
       osb:paint="solid">
      <stop
         style="stop-color:#e6e6e6;stop-opacity:1;"
         offset="0"
         id="stop6089" />
    </linearGradient>
    <linearGradient
       id="linearGradient4593"
       osb:paint="solid">
      <stop
         style="stop-color:#ececec;stop-opacity:1;"
         offset="0"
         id="stop4591" />
    </linearGradient>
    <linearGradient
       id="linearGradient4491"
       osb:paint="gradient">
      <stop
         style="stop-color:#000000;stop-opacity:1;"
         offset="0"
         id="stop4487" />
      <stop
         style="stop-color:#000000;stop-opacity:0;"
         offset="1"
         id="stop4489" />
    </linearGradient>
  </defs>
  <sodipodi:namedview
     id="base"
     pagecolor="#ffffff"
     bordercolor="#666666"
     borderopacity="1.0"
     inkscape:pageopacity="0.0"
     inkscape:pageshadow="2"
     inkscape:zoom="0.70710678"
     inkscape:cx="688.10529"
     inkscape:cy="413.92892"
     inkscape:document-units="mm"
     inkscape:current-layer="layer1"
     showgrid="false"
     showguides="false"
     inkscape:measure-start="743.718,1022.89"
     inkscape:measure-end="544.619,1034.94"
     inkscape:window-width="2560"
     inkscape:window-height="1407"
     inkscape:window-x="1920"
     inkscape:window-y="0"
     inkscape:window-maximized="1" />
  <metadata
     id="metadata5">
    <rdf:RDF>
      <cc:Work
         rdf:about="">
        <dc:format>image/svg+xml</dc:format>
        <dc:type
           rdf:resource="http://purl.org/dc/dcmitype/StillImage" />
        <dc:title></dc:title>
      </cc:Work>
    </rdf:RDF>
  </metadata>
  <g
     inkscape:label="Layer 1"
     inkscape:groupmode="layer"
     id="layer1">
    <rect
       id="rect3680"
       width="193.13564"
       height="279.17368"
       x="8.4321833"
       y="9.3941422"
       style="fill:#f9f9f9;stroke:#ac9d93;stroke-width:6.86436558;stroke-linejoin:round;stroke-miterlimit:4;stroke-dasharray:none;stroke-opacity:1" />
    <g
       aria-label="Notepad

"
       transform="matrix(0.27839975,0,0,0.28485389,-5.8500169,2.092487)"
       style="font-style:normal;font-variant:normal;font-weight:normal;font-stretch:normal;font-size:119.99977112px;line-height:1.25;font-family:sans-serif;-inkscape-font-specification:'sans-serif, Normal';font-variant-ligatures:normal;font-variant-caps:normal;font-variant-numeric:normal;font-feature-settings:normal;text-align:start;letter-spacing:0px;word-spacing:0px;writing-mode:lr-tb;text-anchor:start;fill:#000000;fill-opacity:1;stroke:none"
       id="flowRoot4499">
      <path
         d="m 183.83984,170.25136 h -28.43995 v 2.27999 c 5.27999,0.6 7.43999,0.84 9.47998,3.11999 1.8,2.04 2.28,5.63999 2.28,11.75998 v 40.79992 L 120.83996,170.25136 H 100.44 v 2.27999 c 5.87999,0 7.67998,1.44 11.63998,6.35999 v 52.7999 c 0,12.83997 -1.8,14.63997 -11.63998,15.71997 v 2.27999 h 28.07994 v -2.27999 c -9.23998,-1.32 -11.15998,-3.36 -11.15998,-15.71997 v -46.55991 l 52.9199,65.87987 h 2.16 v -62.15988 c 0,-9.47998 1.2,-12.11998 3.47999,-14.15997 1.56,-1.32 3.36,-1.68 7.91999,-2.16 z"
         style="font-style:normal;font-variant:normal;font-weight:normal;font-stretch:normal;font-size:119.99977112px;font-family:STIX;-inkscape-font-specification:'STIX, Normal';font-variant-ligatures:normal;font-variant-caps:normal;font-variant-numeric:normal;font-feature-settings:normal;text-align:start;writing-mode:lr-tb;text-anchor:start"
         id="path4651" />
      <path
         d="m 240.47786,221.97126 c 0,-16.55997 -11.27998,-27.47995 -25.91995,-27.47995 -16.19997,0 -26.99995,11.15998 -26.99995,27.83995 0,16.67996 11.39998,28.55994 25.91995,28.55994 16.19997,0 26.99995,-12.23998 26.99995,-28.91994 z m -10.79998,3.23999 c 0,13.91997 -5.27999,22.31996 -14.15998,22.31996 -4.31999,0 -8.15998,-2.16 -10.79997,-5.99999 -4.44,-6.47999 -6.35999,-15.11997 -6.35999,-24.59995 0,-11.99998 5.63999,-19.07997 13.91997,-19.07997 5.15999,0 8.51998,2.4 11.39998,5.99999 3.83999,4.91999 5.99999,13.19998 5.99999,21.35996 z"
         style="font-style:normal;font-variant:normal;font-weight:normal;font-stretch:normal;font-size:119.99977112px;font-family:STIX;-inkscape-font-specification:'STIX, Normal';font-variant-ligatures:normal;font-variant-caps:normal;font-variant-numeric:normal;font-feature-settings:normal;text-align:start;writing-mode:lr-tb;text-anchor:start"
         id="path4653" />
      <path
         d="m 275.06029,240.45122 c -2.64,3.12 -4.55999,4.19999 -7.19999,4.19999 -4.43999,0 -6.23998,-3.11999 -6.23998,-10.79998 V 199.5313 h 12.11997 v -3.83999 h -12.11997 v -13.91998 c 0,-1.19999 -0.24,-1.55999 -0.84,-1.55999 -0.72,1.19999 -1.68,2.27999 -2.4,3.35999 -4.55999,6.59999 -8.51998,11.03998 -11.63998,12.83998 -1.31999,0.83999 -2.03999,1.55999 -2.03999,2.27999 0,0.36 0.12,0.6 0.48,0.84 h 6.35998 v 36.11993 c 0,10.07998 3.6,15.23997 10.55998,15.23997 5.99999,0 10.55998,-2.87999 14.51998,-9.11998 z"
         style="font-style:normal;font-variant:normal;font-weight:normal;font-stretch:normal;font-size:119.99977112px;font-family:STIX;-inkscape-font-specification:'STIX, Normal';font-variant-ligatures:normal;font-variant-caps:normal;font-variant-numeric:normal;font-feature-settings:normal;text-align:start;writing-mode:lr-tb;text-anchor:start"
         id="path4655" />
      <path
         d="m 325.38145,230.01124 c -5.87999,8.87998 -10.43998,12.59998 -18.47997,12.59998 -5.51999,0 -9.95998,-2.16 -13.31997,-6.59999 -4.32,-5.75999 -4.91999,-10.43998 -5.51999,-19.55996 h 36.95993 c -0.48,-6.47999 -1.68,-10.31998 -4.08,-13.67998 -3.83999,-5.39999 -9.23998,-8.27998 -16.67996,-8.27998 -15.11997,0 -24.83996,12.23998 -24.83996,29.15994 0,16.55997 8.63999,27.23995 22.79996,27.23995 11.99998,0 20.39996,-6.95999 25.07995,-20.03996 z m -37.07993,-17.39997 c 1.31999,-8.99998 5.99999,-13.79997 12.71997,-13.79997 7.91999,0 10.43998,4.07999 11.75998,13.79997 z"
         style="font-style:normal;font-variant:normal;font-weight:normal;font-stretch:normal;font-size:119.99977112px;font-family:STIX;-inkscape-font-specification:'STIX, Normal';font-variant-ligatures:normal;font-variant-caps:normal;font-variant-numeric:normal;font-feature-settings:normal;text-align:start;writing-mode:lr-tb;text-anchor:start"
         id="path4657" />
      <path
         d="m 348.70452,194.73131 -0.72,-0.24 c -6.35999,2.51999 -10.67998,4.07999 -17.27996,6.11999 v 1.91999 c 1.07999,-0.12 1.91999,-0.12 2.99999,-0.12 4.07999,0 4.91999,1.2 4.91999,6.83999 v 56.15989 c 0,6.23999 -1.32,7.55999 -8.39998,8.27999 v 2.03999 h 29.03994 v -2.15999 c -8.99998,-0.12 -10.55998,-1.44 -10.55998,-8.99998 v -18.83997 c 4.31999,3.95999 7.07999,5.15999 12.11998,5.15999 14.27997,0 25.19995,-13.43997 25.19995,-30.83994 0,-14.87997 -8.39998,-25.55995 -20.03996,-25.55995 -6.71999,0 -11.99998,2.87999 -17.27997,9.47998 z m 0,14.87997 c 0,-3.59999 6.71999,-7.91998 12.23998,-7.91998 8.87998,0 14.75997,9.11998 14.75997,23.15995 0,13.19998 -5.87999,22.19996 -14.51997,22.19996 -5.63999,0 -12.47998,-4.31999 -12.47998,-7.91999 z"
         style="font-style:normal;font-variant:normal;font-weight:normal;font-stretch:normal;font-size:119.99977112px;font-family:STIX;-inkscape-font-specification:'STIX, Normal';font-variant-ligatures:normal;font-variant-caps:normal;font-variant-numeric:normal;font-feature-settings:normal;text-align:start;writing-mode:lr-tb;text-anchor:start"
         id="path4659" />
      <path
         d="m 442.66435,241.77122 c -2.04,1.68 -3.23999,2.27999 -5.15999,2.27999 -2.16,0 -3.71999,-2.39999 -3.71999,-7.91998 v -22.91996 c 0,-7.31998 -0.48,-9.83998 -3.36,-13.31997 -2.87999,-3.47999 -7.43998,-5.39999 -14.15997,-5.39999 -5.39999,0 -10.43998,1.44 -13.79997,3.59999 -4.2,2.64 -6.11999,6.47999 -6.11999,9.59998 0,3.24 2.63999,5.51999 5.15999,5.51999 3.11999,0 5.51999,-2.63999 5.51999,-4.91999 0,-2.51999 -0.72,-2.87999 -0.72,-5.03999 0,-3.23999 3.59999,-5.87999 8.39998,-5.87999 5.39999,0 9.35998,3.36 9.35998,10.79998 v 6.47999 c -13.55997,5.03999 -17.99996,7.31999 -21.59995,9.71998 -4.67999,3.12 -8.39999,7.79999 -8.39999,14.03998 0,7.91998 5.15999,12.47997 12.59998,12.47997 5.15999,0 11.03998,-1.56 17.39996,-8.75998 h 0.12 c 0.6,6.35999 3.24,8.75998 7.67999,8.75998 4.07999,0 7.19999,-1.2 10.79998,-5.75999 z m -18.59997,-7.31999 c 0,3.48 -0.71999,5.15999 -4.19999,7.55999 -2.03999,1.32 -4.55999,1.91999 -6.95998,1.91999 -4.67999,0 -8.27999,-2.87999 -8.27999,-9.23998 0,-3.71999 1.2,-6.59999 4.07999,-9.23998 3,-2.75999 7.91999,-5.27999 15.35997,-7.91998 z"
         style="font-style:normal;font-variant:normal;font-weight:normal;font-stretch:normal;font-size:119.99977112px;font-family:STIX;-inkscape-font-specification:'STIX, Normal';font-variant-ligatures:normal;font-variant-caps:normal;font-variant-numeric:normal;font-feature-settings:normal;text-align:start;writing-mode:lr-tb;text-anchor:start"
         id="path4661" />
      <path
         d="m 501.74734,244.65121 v -1.91999 c -2.03999,0.12 -2.15999,0.12 -2.75999,0.12 -4.32,0 -5.27999,-1.32 -5.27999,-6.83999 v -68.03987 l -0.6,-0.24 c -5.75999,2.04 -9.95998,3.23999 -17.63997,5.27999 v 1.92 c 0.96,-0.12 1.68,-0.12 2.64,-0.12 4.43999,0 5.51999,1.19999 5.51999,6.11998 v 18.71997 c -4.56,-3.83999 -7.79999,-5.15999 -12.59998,-5.15999 -13.79997,0 -24.95995,13.55997 -24.95995,30.59994 0,15.35997 8.87998,25.79995 22.19996,25.79995 6.71998,0 11.27997,-2.39999 15.35997,-8.03998 v 7.67998 l 0.47999,0.36 z m -18.11996,-7.19998 c 0,0.84 -0.72,2.15999 -1.8,3.35999 -2.16,2.52 -5.15999,3.83999 -8.87998,3.83999 -10.07998,0 -16.55997,-9.59998 -16.55997,-24.35995 0,-13.55997 5.87999,-22.43996 14.99997,-22.43996 6.47999,0 12.23998,5.63999 12.23998,11.99998 z"
         style="font-style:normal;font-variant:normal;font-weight:normal;font-stretch:normal;font-size:119.99977112px;font-family:STIX;-inkscape-font-specification:'STIX, Normal';font-variant-ligatures:normal;font-variant-caps:normal;font-variant-numeric:normal;font-feature-settings:normal;text-align:start;writing-mode:lr-tb;text-anchor:start"
         id="path4663" />
    </g>
    <rect
       style="fill:#c8b7b7;stroke:#ac9d93;stroke-width:6.34658766;stroke-linejoin:round;stroke-miterlimit:4;stroke-dasharray:none;stroke-dashoffset:0;stroke-opacity:1"
       id="rect4536"
       width="148.91548"
       height="4.3464007"
       x="26.063971"
       y="97.578461" />
    <rect
       style="fill:#c8b7b7;stroke:#ac9d93;stroke-width:5.35505533;stroke-linejoin:round;stroke-miterlimit:4;stroke-dasharray:none;stroke-dashoffset:0;stroke-opacity:1"
       id="rect4536-9"
       width="86.142052"
       height="5.3493581"
       x="25.573856"
       y="126.98652" />
    <rect
       style="fill:#c8b7b7;stroke:#ac9d93;stroke-width:5.95833063;stroke-linejoin:round;stroke-miterlimit:4;stroke-dasharray:none;stroke-dashoffset:0;stroke-opacity:1"
       id="rect4536-3"
       width="120.37593"
       height="4.7391291"
       x="25.872057"
       y="157.53714" />
    <rect
       style="fill:#c8b7b7;stroke:#ac9d93;stroke-width:5.35505533;stroke-linejoin:round;stroke-miterlimit:4;stroke-dasharray:none;stroke-dashoffset:0;stroke-opacity:1"
       id="rect4536-9-3"
       width="86.142052"
       height="5.3493581"
       x="25.573858"
       y="187.14174" />
    <rect
       style="fill:#c8b7b7;stroke:#ac9d93;stroke-width:5.95833063;stroke-linejoin:round;stroke-miterlimit:4;stroke-dasharray:none;stroke-dashoffset:0;stroke-opacity:1"
       id="rect4536-3-8"
       width="120.37593"
       height="4.7391291"
       x="25.872057"
       y="217.07133" />
    <rect
       style="fill:#c8b7b7;stroke:#ac9d93;stroke-width:5.35505533;stroke-linejoin:round;stroke-miterlimit:4;stroke-dasharray:none;stroke-dashoffset:0;stroke-opacity:1"
       id="rect4536-9-3-0"
       width="86.142052"
       height="5.3493581"
       x="25.573858"
       y="246.67592" />
    <rect
       style="fill:#f9f9f9;fill-opacity:1;stroke:#ececec;stroke-width:1.92201829;stroke-linejoin:round;stroke-miterlimit:4;stroke-dasharray:none;stroke-dashoffset:0;stroke-opacity:1"
       id="rect4589"
       width="82.27739"
       height="19.588177"
       x="63.861248"
       y="5.9610085" />
  </g>
</svg>
